# xmcd
#
# Track frame offsets: 
#        150
#        11537
#        24571
#        38621
#        51102
#        61368
#        72509
#        84381
#        96600
#        110406
#        125854
#
# Disc length: 1891 seconds
#
# Revision: 0
# Processed by: cddbd v1.5.2PL0 Copyright (c) Steve Scherf et al.
# Submitted via: ExactAudioCopy v1.0b1
#
DISCID=9607610b
DTITLE=Peggy Sugarhill - Rockabilly Music Is Bad Bad Bad
DYEAR=2010
DGENRE=Rock and Roll
TTITLE0=Rockabilly Music Is Bad
TTITLE1=Lucille
TTITLE2=She Don't Love You
TTITLE3=Sticks And Stones
TTITLE4=Money Honey
TTITLE5=Gisele
TTITLE6=That's Allright Mama
TTITLE7=I Won't Stand In Your Way
TTITLE8=Breakaway
TTITLE9=Switchblade 327
TTITLE10=Eldorado Lost
EXTD=
EXTT0=
EXTT1=
EXTT2=
EXTT3=
EXTT4=
EXTT5=
EXTT6=
EXTT7=
EXTT8=
EXTT9=
EXTT10=
PLAYORDER=
